<svg width="100" height="100" viewBox="0 0 100 100" fill="none" xmlns="http://www.w3.org/2000/svg">
<circle cx="50" cy="50" r="50" fill="url(#paint0_radial_107_6)"/>
<path d="M32.081 67H19.706V32.0909H32.1832C35.6946 32.0909 38.7173 32.7898 41.2514 34.1875C43.7855 35.5739 45.7344 37.5682 47.098 40.1705C48.473 42.7727 49.1605 45.8864 49.1605 49.5114C49.1605 53.1477 48.473 56.2727 47.098 58.8864C45.7344 61.5 43.7741 63.5057 41.2173 64.9034C38.6719 66.3011 35.6264 67 32.081 67ZM27.0866 60.6761H31.7741C33.956 60.6761 35.7912 60.2898 37.2798 59.517C38.7798 58.733 39.9048 57.5227 40.6548 55.8864C41.4162 54.2386 41.7969 52.1136 41.7969 49.5114C41.7969 46.9318 41.4162 44.8239 40.6548 43.1875C39.9048 41.5511 38.7855 40.3466 37.2969 39.5739C35.8082 38.8011 33.973 38.4148 31.7912 38.4148H27.0866V60.6761ZM67.446 67.4773C64.821 67.4773 62.4858 67.0511 60.4403 66.1989C58.4063 65.3352 56.8097 64.1591 55.6506 62.6705C54.4915 61.1818 53.9119 59.4943 53.9119 57.608C53.9119 56.1534 54.2415 54.8182 54.9006 53.6023C55.571 52.375 56.4801 51.358 57.6278 50.5511C58.7756 49.733 60.0597 49.2102 61.4801 48.983V48.7443C59.6165 48.3693 58.1051 47.4659 56.946 46.0341C55.7869 44.5909 55.2074 42.9148 55.2074 41.0057C55.2074 39.1989 55.7358 37.5909 56.7926 36.1818C57.8494 34.7614 59.2983 33.6477 61.1392 32.8409C62.9915 32.0227 65.0938 31.6136 67.446 31.6136C69.7983 31.6136 71.8949 32.0227 73.7358 32.8409C75.5881 33.6591 77.0426 34.7784 78.0994 36.1989C79.1563 37.608 79.6903 39.2102 79.7017 41.0057C79.6903 42.9261 79.0994 44.6023 77.929 46.0341C76.7585 47.4659 75.2585 48.3693 73.429 48.7443V48.983C74.8267 49.2102 76.0938 49.733 77.2301 50.5511C78.3778 51.358 79.2869 52.375 79.9574 53.6023C80.6392 54.8182 80.9858 56.1534 80.9972 57.608C80.9858 59.4943 80.4006 61.1818 79.2415 62.6705C78.0824 64.1591 76.4801 65.3352 74.4347 66.1989C72.4006 67.0511 70.071 67.4773 67.446 67.4773ZM67.446 62.0568C68.6165 62.0568 69.6392 61.8466 70.5142 61.4261C71.3892 60.9943 72.071 60.4034 72.5597 59.6534C73.0597 58.892 73.3097 58.017 73.3097 57.0284C73.3097 56.017 73.054 55.125 72.5426 54.3523C72.0313 53.5682 71.3381 52.9545 70.4631 52.5114C69.5881 52.0568 68.5824 51.8295 67.446 51.8295C66.321 51.8295 65.3153 52.0568 64.429 52.5114C63.5426 52.9545 62.8438 53.5682 62.3324 54.3523C61.8324 55.125 61.5824 56.017 61.5824 57.0284C61.5824 58.017 61.8267 58.892 62.3153 59.6534C62.804 60.4034 63.4915 60.9943 64.3778 61.4261C65.2642 61.8466 66.2869 62.0568 67.446 62.0568ZM67.446 46.4602C68.4233 46.4602 69.2926 46.2614 70.054 45.8636C70.8153 45.4659 71.4119 44.9148 71.8438 44.2102C72.2756 43.5057 72.4915 42.6932 72.4915 41.7727C72.4915 40.8636 72.2756 40.0682 71.8438 39.3864C71.4119 38.6932 70.821 38.1534 70.071 37.767C69.321 37.3693 68.446 37.1705 67.446 37.1705C66.4574 37.1705 65.5824 37.3693 64.821 37.767C64.0597 38.1534 63.4631 38.6932 63.0312 39.3864C62.6108 40.0682 62.4006 40.8636 62.4006 41.7727C62.4006 42.6932 62.6165 43.5057 63.0483 44.2102C63.4801 44.9148 64.0767 45.4659 64.8381 45.8636C65.5994 46.2614 66.4688 46.4602 67.446 46.4602Z" fill="#3269A8"/>
<defs>
<radialGradient id="paint0_radial_107_6" cx="0" cy="0" r="1" gradientUnits="userSpaceOnUse" gradientTransform="translate(50 50) rotate(90) scale(50)">
<stop offset="0.588542" stop-color="white"/>
<stop offset="1" stop-color="white" stop-opacity="0.66"/>
</radialGradient>
</defs>
</svg>
